<?xml version="1.0" encoding="utf-8"?>
<!-- Generator: Adobe Illustrator 25.3.1, SVG Export Plug-In . SVG Version: 6.00 Build 0)  -->
<svg version="1.1" id="Layer_1" xmlns="http://www.w3.org/2000/svg" xmlns:xlink="http://www.w3.org/1999/xlink" x="0px" y="0px"
	 viewBox="0 0 24 24" style="enable-background:new 0 0 24 24;" xml:space="preserve">
<path d="M2,12c0,5,4,9,9,9c6.1,0,11-4.9,11-11c0-0.6-0.4-1-1-1s-1,0.4-1,1c0,5-4,9-9,9c-3.9,0-7-3.1-7-7s3.1-7,7-7c2.8,0,5,2.2,5,5
	s-2.2,5-5,5c-1.7,0-3-1.3-3-3s1.3-3,3-3c0.6,0,1,0.4,1,1s-0.4,1-1,1s-1,0.4-1,1s0.4,1,1,1c1.7,0,3-1.3,3-3s-1.3-3-3-3
	c-2.8,0-5,2.2-5,5s2.2,5,5,5c3.9,0,7-3.1,7-7s-3.1-7-7-7C6,3,2,7,2,12z"/>
</svg>
